<svg width="24" height="24" viewBox="0 0 24 24" fill="none" xmlns="http://www.w3.org/2000/svg">
<g clip-path="url(#clip0_4501_81520)">
<path d="M6.43242 14.0865L5.73625 16.6854L3.19176 16.7393C2.43133 15.3288 2 13.7151 2 12.0003C2 10.342 2.40328 8.77828 3.11813 7.40137H3.11867L5.38398 7.81668L6.37633 10.0684C6.16863 10.6739 6.05543 11.3239 6.05543 12.0003C6.05551 12.7343 6.18848 13.4377 6.43242 14.0865Z" fill="#FBBB00"/>
<path d="M21.8254 10.1321C21.9402 10.737 22.0001 11.3617 22.0001 12.0002C22.0001 12.7161 21.9249 13.4145 21.7815 14.0881C21.2947 16.3804 20.0227 18.3821 18.2606 19.7986L18.2601 19.798L15.4068 19.6524L15.0029 17.1315C16.1722 16.4458 17.0859 15.3727 17.5672 14.0881H12.22V10.1321H17.6452H21.8254Z" fill="#518EF8"/>
<path d="M18.26 19.7977L18.2606 19.7983C16.5469 21.1757 14.3699 21.9999 12.0001 21.9999C8.19189 21.9999 4.88092 19.8713 3.19189 16.7389L6.43256 14.0862C7.27705 16.34 9.45123 17.9444 12.0001 17.9444C13.0957 17.9444 14.1221 17.6483 15.0029 17.1312L18.26 19.7977Z" fill="#28B446"/>
<path d="M18.383 4.30219L15.1434 6.95438C14.2319 6.38461 13.1544 6.05547 12 6.05547C9.39344 6.05547 7.17859 7.73348 6.37641 10.0681L3.11871 7.40109H3.11816C4.78246 4.19231 8.1352 2 12 2C14.4264 2 16.6511 2.8643 18.383 4.30219Z" fill="#F14336"/>
</g>
<defs>
<clipPath id="clip0_4501_81520">
<rect width="20" height="20" fill="white" transform="translate(2 2)"/>
</clipPath>
</defs>
</svg>
